<?xml version="1.0" standalone="no"?>
<!DOCTYPE svg PUBLIC "-//W3C//DTD SVG 20010904//EN"
 "http://www.w3.org/TR/2001/REC-SVG-20010904/DTD/svg10.dtd">
<svg version="1.0" xmlns="http://www.w3.org/2000/svg"
 width="688.000000pt" height="688.000000pt" viewBox="0 0 688.000000 688.000000"
 preserveAspectRatio="xMidYMid meet">
<metadata>
Created by potrace 1.11, written by Peter Selinger 2001-2013
</metadata>
<g transform="translate(0.000000,688.000000) scale(0.100000,-0.100000)"
fill="#000000" stroke="none">
<path d="M2607 6071 c-3 -5 -3 -13 2 -38 0 -5 11 -20 24 -35 24 -29 51 -63 97
-123 17 -22 36 -47 43 -55 7 -8 28 -35 47 -60 19 -25 39 -48 45 -52 5 -4 7 -8
3 -8 -5 0 0 -8 10 -18 26 -28 52 -62 52 -67 0 -5 39 -51 68 -81 6 -7 12 -16
12 -21 0 -5 12 -23 28 -40 43 -50 86 -104 96 -122 5 -9 12 -18 16 -21 3 -3 28
-34 55 -70 28 -36 53 -66 58 -68 4 -2 7 -8 7 -13 0 -5 12 -23 27 -40 15 -16
39 -48 53 -70 15 -21 30 -36 33 -32 4 3 7 1 7 -5 0 -6 53 -80 117 -164 65 -84
121 -157 125 -163 4 -5 23 -29 40 -52 18 -22 44 -56 58 -74 14 -18 31 -38 38
-45 6 -7 12 -15 12 -18 0 -6 31 -44 58 -72 6 -7 12 -17 12 -22 0 -6 4 -12 8
-14 4 -1 20 -19 35 -39 23 -31 26 -39 15 -50 -8 -8 -29 -35 -48 -61 -18 -27
-36 -48 -39 -48 -3 0 -19 -20 -34 -45 -16 -25 -33 -45 -38 -45 -5 0 -9 -5 -9
-12 0 -6 -7 -18 -15 -27 -34 -35 -175 -221 -175 -230 0 -6 -6 -14 -13 -18 -7
-4 -38 -42 -70 -83 -31 -41 -60 -79 -64 -85 -5 -5 -24 -30 -43 -55 -19 -25
-39 -48 -45 -52 -5 -4 -6 -8 -1 -8 6 0 3 -6 -6 -12 -13 -11 -64 -76 -163 -207
-11 -14 -44 -58 -75 -97 -30 -38 -65 -83 -77 -100 -43 -57 -185 -239 -204
-262 -10 -12 -19 -26 -19 -31 0 -5 -4 -11 -8 -13 -5 -1 -39 -43 -77 -93 -37
-49 -77 -100 -88 -112 -10 -12 -17 -25 -14 -30 6 -9 2409 -8 2474 1 23 3 52
10 65 15 13 5 25 8 28 8 3 0 27 10 54 21 27 12 52 22 57 22 5 0 9 3 9 8 0 4
16 16 35 26 49 26 165 145 199 204 5 8 36 50 70 92 33 43 70 90 81 106 11 15
32 41 48 58 15 17 27 36 27 42 0 7 4 14 9 16 5 2 52 59 105 128 52 69 99 130
104 135 4 6 37 48 72 95 35 47 67 87 70 90 3 3 21 26 40 53 18 26 37 47 42 47
4 0 8 6 8 13 0 7 12 27 28 44 52 60 67 80 81 106 8 14 18 24 23 21 4 -3 8 2 8
10 0 9 5 16 10 16 6 0 10 6 10 13 0 7 9 19 20 27 11 8 20 19 20 25 0 6 10 21
23 35 12 14 36 43 52 65 17 22 32 42 35 45 55 55 77 155 49 228 -10 27 -88
134 -101 140 -5 2 -8 8 -8 13 0 6 -9 20 -21 32 -12 12 -28 33 -37 47 -9 14
-22 29 -29 33 -7 4 -13 14 -13 21 0 8 -7 16 -15 20 -8 3 -15 10 -15 16 0 5 -8
18 -17 28 -10 10 -29 33 -43 52 -63 85 -135 175 -142 178 -4 2 -8 8 -8 13 0 8
-20 35 -47 64 -7 8 -13 18 -13 23 0 6 -4 12 -9 14 -5 2 -32 35 -62 73 -56 73
-57 75 -89 114 -11 13 -20 27 -20 30 0 3 -16 23 -35 45 -19 21 -35 41 -35 45
0 3 -15 23 -33 43 -17 20 -48 59 -67 85 -19 26 -37 50 -40 53 -3 3 -34 43 -70
90 -35 47 -68 87 -72 88 -4 2 -8 8 -8 13 0 10 -7 19 -77 97 -70 79 -187 153
-278 177 -16 5 -37 10 -45 13 -21 7 -2480 10 -2483 3z m2351 -213 c7 -49 7
-120 0 -124 -5 -3 -6 -10 -3 -15 4 -5 2 -9 -2 -9 -5 0 -8 36 -8 80 0 44 3 80
6 80 3 0 6 -6 7 -12z"/>
<path d="M1030 4332 c-57 -5 -170 -42 -234 -76 -50 -26 -165 -128 -201 -177
-34 -47 -81 -105 -90 -111 -5 -4 -6 -8 -1 -8 6 0 3 -6 -6 -12 -16 -14 -157
-196 -196 -254 -12 -19 -27 -34 -34 -34 -6 0 -9 -3 -5 -6 5 -5 -10 -28 -43
-63 -8 -9 -26 -32 -40 -51 -13 -19 -27 -37 -30 -40 -3 -3 -25 -32 -50 -65 -46
-62 -48 -64 -80 -104 -20 -23 -20 -41 -20 -743 l0 -719 81 -107 c45 -59 85
-108 90 -110 5 -2 9 -10 9 -17 0 -7 3 -15 8 -17 6 -3 24 -25 112 -139 14 -18
31 -38 37 -45 7 -7 13 -15 13 -18 0 -5 21 -32 45 -60 6 -6 22 -27 35 -46 13
-19 27 -37 30 -40 3 -3 21 -25 40 -50 19 -25 38 -47 42 -48 5 -2 8 -10 8 -18
0 -8 5 -14 10 -14 6 0 10 -4 10 -10 0 -10 13 -26 91 -108 98 -102 230 -167
364 -178 17 -1 39 -5 50 -7 11 -2 32 -1 48 4 15 4 27 5 27 1 0 -4 23 -7 50 -7
28 0 50 3 50 6 0 5 35 4 50 -1 3 -1 25 -1 50 -1 25 1 52 2 60 1 8 0 49 0 90 0
115 -1 153 -1 175 -1 11 -1 29 0 40 0 31 1 137 2 165 1 141 -5 390 -3 390 3 0
5 4 5 10 2 5 -3 38 -6 72 -5 35 0 74 0 88 -1 27 -1 44 -1 75 0 22 1 201 2 300
1 22 0 47 0 55 0 14 1 411 1 455 0 92 -2 148 -1 151 3 2 2 -7 16 -21 31 -14
15 -25 30 -25 34 0 4 -14 21 -30 39 -17 18 -30 34 -30 37 0 3 -7 14 -15 23
-22 28 -105 134 -165 213 -30 40 -61 79 -68 86 -7 8 -11 14 -8 14 3 0 -5 11
-17 24 -24 25 -35 40 -105 134 -25 34 -49 62 -54 62 -4 0 -8 4 -8 10 0 9 -16
31 -45 64 -6 6 -22 27 -35 46 -13 19 -27 37 -30 40 -3 3 -35 43 -70 90 -36 47
-67 87 -70 90 -3 3 -25 32 -50 65 -24 33 -54 71 -67 85 -13 14 -23 28 -23 31
0 3 -9 17 -20 30 -42 51 -63 77 -137 174 -43 55 -81 102 -85 103 -4 2 -8 9 -8
14 0 6 -7 18 -15 27 -9 9 -36 43 -61 76 -25 33 -54 67 -64 75 -18 14 -17 17
17 65 20 27 40 52 45 53 4 2 8 10 8 17 0 7 4 15 8 17 5 2 70 84 147 183 76 99
142 182 147 183 4 2 6 8 2 13 -3 5 -1 9 4 9 5 0 24 21 42 48 18 26 40 54 47
62 12 13 73 91 163 210 14 18 33 42 43 53 9 11 17 23 17 27 0 4 14 21 30 38
17 18 30 36 30 41 0 5 7 12 16 15 8 3 12 10 9 16 -3 5 -2 10 3 10 4 0 33 33
62 73 47 62 72 94 154 197 7 9 32 42 56 75 25 33 47 62 50 65 3 3 31 39 63 80
31 41 66 86 77 100 60 74 90 120 78 121 -35 3 -2408 4 -2438 1z"/>
</g>
</svg>
